<?xml version="1.0" encoding="UTF-8"?>
<svg id="Layer_1" data-name="Layer 1" xmlns="http://www.w3.org/2000/svg" version="1.1" viewBox="0 0 200 68">
  <defs>
    <style>
      .cls-1 {
        fill: #f9e80c;
      }

      .cls-1, .cls-2, .cls-3 {
        stroke-width: 0px;
      }

      .cls-2 {
        fill: #ea1313;
      }

      .cls-3 {
        fill: #fff;
      }
    </style>
  </defs>
  <g>
    <path class="cls-3" d="M87.91,66.69V17.13h8.53v9.95c0,.25.18.46.42.49.03,0,.05,0,.08,0,.21,0,.41-.14.48-.35,1.05-3.33,2.72-5.99,4.97-7.93,2.23-1.91,4.91-2.88,7.97-2.88,4.34,0,7.99,1.77,10.84,5.25,2.88,3.52,4.33,7.95,4.33,13.17s-1.46,9.65-4.33,13.17c-2.85,3.49-6.5,5.25-10.84,5.25-3.06,0-5.75-.97-7.97-2.88-2.25-1.93-3.92-4.6-4.97-7.93-.07-.21-.26-.35-.48-.35-.03,0-.05,0-.08,0-.24.04-.42.25-.42.49v24.07h-8.53ZM106.9,24.18c-3,0-5.52,1.02-7.49,3.05-1.97,2.02-2.97,4.58-2.97,7.62s1,5.62,2.96,7.65c1.97,2.05,4.49,3.08,7.49,3.08,2.72,0,5.06-1.04,6.94-3.09,1.87-2.04,2.81-4.61,2.81-7.65s-.95-5.54-2.81-7.58c-1.88-2.05-4.22-3.09-6.94-3.09ZM62.98,53.27c-4.84,0-8.86-1.46-11.94-4.35-3.08-2.88-4.64-6.66-4.64-11.25v-20.54h8.53v20.54c0,2.34.76,4.27,2.27,5.72,1.5,1.45,3.45,2.19,5.78,2.19s4.28-.74,5.78-2.19c1.51-1.46,2.27-3.38,2.27-5.72v-20.54h8.53v20.54c0,4.59-1.56,8.37-4.64,11.25-3.09,2.89-7.11,4.35-11.94,4.35ZM15.68,53.27c-4.3,0-7.93-1.77-10.81-5.25-2.9-3.51-4.37-7.94-4.37-13.17s1.47-9.65,4.37-13.17c2.88-3.49,6.51-5.25,10.81-5.25,3.02,0,5.69.96,7.94,2.85,2.27,1.91,3.95,4.51,5,7.75.07.21.26.35.48.35.03,0,.05,0,.08,0,.24-.04.42-.25.42-.49V1.31h8.53v51.25h-8.53v-9.74c0-.25-.18-.46-.42-.49-.03,0-.05,0-.08,0-.21,0-.41.14-.48.35-1.05,3.24-2.73,5.84-5,7.75-2.25,1.89-4.92,2.85-7.94,2.85ZM19.13,24.18c-2.67,0-5,1.04-6.9,3.09-1.89,2.04-2.85,4.59-2.85,7.58s.95,5.61,2.81,7.65c1.88,2.05,4.21,3.09,6.94,3.09,3.05,0,5.58-1.03,7.53-3.05,1.94-2.02,2.93-4.6,2.93-7.69s-.99-5.6-2.93-7.62c-1.95-2.02-4.48-3.05-7.53-3.05ZM132.75,52.56V1.31h8.53v51.25h-8.53Z"/>
    <path class="cls-3" d="M140.78,1.81v50.25h-7.53V1.81h7.53M37.62,1.81v50.25h-7.53v-9.24c0-.49-.36-.91-.84-.99-.05,0-.1-.01-.16-.01-.43,0-.82.27-.95.69-1.02,3.15-2.65,5.68-4.85,7.52-2.19,1.84-4.68,2.73-7.62,2.73-4.2,0-7.61-1.66-10.42-5.07-2.82-3.42-4.25-7.75-4.25-12.85s1.43-9.43,4.25-12.85c2.82-3.41,6.22-5.07,10.42-5.07,2.94,0,5.43.89,7.62,2.73,2.2,1.84,3.83,4.37,4.85,7.52.14.42.52.69.95.69.05,0,.1,0,.16-.01.49-.08.84-.5.84-.99V1.81h7.53M19.13,46.09c3.19,0,5.84-1.08,7.89-3.2,2.04-2.11,3.07-4.82,3.07-8.04s-1.03-5.85-3.07-7.97c-2.05-2.12-4.7-3.2-7.89-3.2-2.82,0-5.26,1.09-7.26,3.25-1.98,2.14-2.98,4.8-2.98,7.92s.99,5.85,2.94,7.98c1.98,2.16,4.43,3.25,7.3,3.25M110.36,16.92c4.24,0,7.66,1.66,10.45,5.07,2.8,3.42,4.22,7.75,4.22,12.85s-1.42,9.43-4.22,12.85c-2.79,3.41-6.21,5.07-10.45,5.07-2.98,0-5.48-.9-7.65-2.76-2.18-1.87-3.8-4.46-4.82-7.7-.13-.42-.52-.7-.95-.7-.05,0-.1,0-.15.01-.49.08-.85.49-.85.99v23.57h-7.53V17.63h7.53v9.45c0,.49.36.91.85.99.05,0,.1.01.15.01.43,0,.82-.28.95-.7,1.02-3.24,2.64-5.83,4.82-7.7,2.16-1.86,4.66-2.76,7.64-2.76M106.9,46.09c2.87,0,5.33-1.1,7.3-3.25,1.95-2.13,2.95-4.82,2.95-7.98s-.99-5.78-2.95-7.91c-1.98-2.16-4.44-3.25-7.3-3.25-3.14,0-5.78,1.08-7.85,3.2-2.06,2.11-3.11,4.8-3.11,7.97s1.04,5.87,3.1,8c2.07,2.15,4.71,3.24,7.85,3.24M79.07,17.63v20.04c0,4.51-1.47,8.07-4.48,10.88-2.99,2.8-6.9,4.21-11.6,4.21s-8.61-1.42-11.6-4.21c-3.02-2.82-4.48-6.38-4.48-10.88v-20.04h7.53v20.04c0,2.48.82,4.53,2.42,6.08,1.6,1.55,3.66,2.33,6.13,2.33s4.53-.78,6.13-2.33c1.61-1.55,2.42-3.6,2.42-6.09v-20.04h7.53M141.78.81h-9.53v52.25h9.53V.81h0ZM38.62.81h-9.53v26.05c-1.08-3.34-2.8-6-5.15-7.98-2.35-1.98-5.11-2.97-8.26-2.97-4.47,0-8.2,1.81-11.19,5.44C1.49,24.99,0,29.48,0,34.85s1.49,9.86,4.48,13.49c2.99,3.63,6.72,5.44,11.19,5.44,3.15,0,5.91-.99,8.26-2.97,2.35-1.98,4.07-4.64,5.15-7.98v10.24h9.53V.81h0ZM19.13,45.09c-2.59,0-4.78-.98-6.57-2.93-1.79-1.95-2.68-4.39-2.68-7.31s.91-5.28,2.72-7.24c1.81-1.95,3.99-2.93,6.53-2.93,2.92,0,5.31.97,7.17,2.9,1.86,1.93,2.79,4.35,2.79,7.27s-.93,5.41-2.79,7.34c-1.86,1.93-4.25,2.89-7.17,2.89h0ZM110.36,15.92c-3.2,0-5.97,1-8.3,3-2.33,2-4.04,4.72-5.12,8.15v-10.45h-9.53v50.55h9.53v-24.57c1.08,3.44,2.79,6.15,5.12,8.15,2.33,2,5.09,3,8.3,3,4.52,0,8.26-1.81,11.23-5.44,2.97-3.62,4.45-8.12,4.45-13.49s-1.48-9.86-4.45-13.49c-2.97-3.62-6.71-5.44-11.23-5.44h0ZM106.9,45.09c-2.87,0-5.25-.98-7.13-2.93-1.88-1.95-2.82-4.39-2.82-7.31s.94-5.34,2.82-7.27c1.88-1.93,4.26-2.9,7.13-2.9,2.59,0,4.78.98,6.57,2.93,1.79,1.95,2.68,4.37,2.68,7.24s-.89,5.35-2.68,7.31c-1.79,1.95-3.98,2.93-6.57,2.93h0ZM80.07,16.63h-9.53v21.04c0,2.21-.71,4-2.12,5.37-1.41,1.37-3.22,2.05-5.44,2.05s-4.02-.68-5.44-2.05c-1.41-1.36-2.12-3.15-2.12-5.37v-21.04h-9.53v21.04c0,4.75,1.6,8.63,4.8,11.61,3.2,2.99,7.3,4.48,12.29,4.48s9.08-1.49,12.29-4.48c3.2-2.99,4.8-6.86,4.8-11.61v-21.04h0Z"/>
  </g>
  <g>
    <path class="cls-3" d="M87.91,66.69V17.13h8.53v9.95c0,.25.18.46.42.49.03,0,.05,0,.08,0,.21,0,.41-.14.48-.35,1.05-3.33,2.72-5.99,4.97-7.93,2.23-1.91,4.91-2.88,7.97-2.88,4.34,0,7.99,1.77,10.84,5.25,2.88,3.52,4.33,7.95,4.33,13.17s-1.46,9.65-4.33,13.17c-2.85,3.49-6.5,5.25-10.84,5.25-3.06,0-5.75-.97-7.97-2.88-2.25-1.93-3.92-4.6-4.97-7.93-.07-.21-.26-.35-.48-.35-.03,0-.05,0-.08,0-.24.04-.42.25-.42.49v24.07h-8.53ZM106.9,24.18c-3,0-5.52,1.02-7.49,3.05-1.97,2.02-2.97,4.58-2.97,7.62s1,5.62,2.96,7.65c1.97,2.05,4.49,3.08,7.49,3.08,2.72,0,5.06-1.04,6.94-3.09,1.87-2.04,2.81-4.61,2.81-7.65s-.95-5.54-2.81-7.58c-1.88-2.05-4.22-3.09-6.94-3.09ZM62.98,53.27c-4.84,0-8.86-1.46-11.94-4.35-3.08-2.88-4.64-6.66-4.64-11.25v-20.54h8.53v20.54c0,2.34.76,4.27,2.27,5.72,1.5,1.45,3.45,2.19,5.78,2.19s4.28-.74,5.78-2.19c1.51-1.46,2.27-3.38,2.27-5.72v-20.54h8.53v20.54c0,4.59-1.56,8.37-4.64,11.25-3.09,2.89-7.11,4.35-11.94,4.35ZM15.68,53.27c-4.3,0-7.93-1.77-10.81-5.25-2.9-3.51-4.37-7.94-4.37-13.17s1.47-9.65,4.37-13.17c2.88-3.49,6.51-5.25,10.81-5.25,3.02,0,5.69.96,7.94,2.85,2.27,1.91,3.95,4.51,5,7.75.07.21.26.35.48.35.03,0,.05,0,.08,0,.24-.04.42-.25.42-.49V1.31h8.53v51.25h-8.53v-9.74c0-.25-.18-.46-.42-.49-.03,0-.05,0-.08,0-.21,0-.41.14-.48.35-1.05,3.24-2.73,5.84-5,7.75-2.25,1.89-4.92,2.85-7.94,2.85ZM19.13,24.18c-2.67,0-5,1.04-6.9,3.09-1.89,2.04-2.85,4.59-2.85,7.58s.95,5.61,2.81,7.65c1.88,2.05,4.21,3.09,6.94,3.09,3.05,0,5.58-1.03,7.53-3.05,1.94-2.02,2.93-4.6,2.93-7.69s-.99-5.6-2.93-7.62c-1.95-2.02-4.48-3.05-7.53-3.05ZM132.75,52.56V1.31h8.53v51.25h-8.53Z"/>
    <path class="cls-3" d="M140.78,1.81v50.25h-7.53V1.81h7.53M37.62,1.81v50.25h-7.53v-9.24c0-.49-.36-.91-.84-.99-.05,0-.1-.01-.16-.01-.43,0-.82.27-.95.69-1.02,3.15-2.65,5.68-4.85,7.52-2.19,1.84-4.68,2.73-7.62,2.73-4.2,0-7.61-1.66-10.42-5.07-2.82-3.42-4.25-7.75-4.25-12.85s1.43-9.43,4.25-12.85c2.82-3.41,6.22-5.07,10.42-5.07,2.94,0,5.43.89,7.62,2.73,2.2,1.84,3.83,4.37,4.85,7.52.14.42.52.69.95.69.05,0,.1,0,.16-.01.49-.08.84-.5.84-.99V1.81h7.53M19.13,46.09c3.19,0,5.84-1.08,7.89-3.2,2.04-2.11,3.07-4.82,3.07-8.04s-1.03-5.85-3.07-7.97c-2.05-2.12-4.7-3.2-7.89-3.2-2.82,0-5.26,1.09-7.26,3.25-1.98,2.14-2.98,4.8-2.98,7.92s.99,5.85,2.94,7.98c1.98,2.16,4.43,3.25,7.3,3.25M110.36,16.92c4.24,0,7.66,1.66,10.45,5.07,2.8,3.42,4.22,7.75,4.22,12.85s-1.42,9.43-4.22,12.85c-2.79,3.41-6.21,5.07-10.45,5.07-2.98,0-5.48-.9-7.65-2.76-2.18-1.87-3.8-4.46-4.82-7.7-.13-.42-.52-.7-.95-.7-.05,0-.1,0-.15.01-.49.08-.85.49-.85.99v23.57h-7.53V17.63h7.53v9.45c0,.49.36.91.85.99.05,0,.1.01.15.01.43,0,.82-.28.95-.7,1.02-3.24,2.64-5.83,4.82-7.7,2.16-1.86,4.66-2.76,7.64-2.76M106.9,46.09c2.87,0,5.33-1.1,7.3-3.25,1.95-2.13,2.95-4.82,2.95-7.98s-.99-5.78-2.95-7.91c-1.98-2.16-4.44-3.25-7.3-3.25-3.14,0-5.78,1.08-7.85,3.2-2.06,2.11-3.11,4.8-3.11,7.97s1.04,5.87,3.1,8c2.07,2.15,4.71,3.24,7.85,3.24M79.07,17.63v20.04c0,4.51-1.47,8.07-4.48,10.88-2.99,2.8-6.9,4.21-11.6,4.21s-8.61-1.42-11.6-4.21c-3.02-2.82-4.48-6.38-4.48-10.88v-20.04h7.53v20.04c0,2.48.82,4.53,2.42,6.08,1.6,1.55,3.66,2.33,6.13,2.33s4.53-.78,6.13-2.33c1.61-1.55,2.42-3.6,2.42-6.09v-20.04h7.53M141.78.81h-9.53v52.25h9.53V.81h0ZM38.62.81h-9.53v26.05c-1.08-3.34-2.8-6-5.15-7.98-2.35-1.98-5.11-2.97-8.26-2.97-4.47,0-8.2,1.81-11.19,5.44C1.49,24.99,0,29.48,0,34.85s1.49,9.86,4.48,13.49c2.99,3.63,6.72,5.44,11.19,5.44,3.15,0,5.91-.99,8.26-2.97,2.35-1.98,4.07-4.64,5.15-7.98v10.24h9.53V.81h0ZM19.13,45.09c-2.59,0-4.78-.98-6.57-2.93-1.79-1.95-2.68-4.39-2.68-7.31s.91-5.28,2.72-7.24c1.81-1.95,3.99-2.93,6.53-2.93,2.92,0,5.31.97,7.17,2.9,1.86,1.93,2.79,4.35,2.79,7.27s-.93,5.41-2.79,7.34c-1.86,1.93-4.25,2.89-7.17,2.89h0ZM110.36,15.92c-3.2,0-5.97,1-8.3,3-2.33,2-4.04,4.72-5.12,8.15v-10.45h-9.53v50.55h9.53v-24.57c1.08,3.44,2.79,6.15,5.12,8.15,2.33,2,5.09,3,8.3,3,4.52,0,8.26-1.81,11.23-5.44,2.97-3.62,4.45-8.12,4.45-13.49s-1.48-9.86-4.45-13.49c-2.97-3.62-6.71-5.44-11.23-5.44h0ZM106.9,45.09c-2.87,0-5.25-.98-7.13-2.93-1.88-1.95-2.82-4.39-2.82-7.31s.94-5.34,2.82-7.27c1.88-1.93,4.26-2.9,7.13-2.9,2.59,0,4.78.98,6.57,2.93,1.79,1.95,2.68,4.37,2.68,7.24s-.89,5.35-2.68,7.31c-1.79,1.95-3.98,2.93-6.57,2.93h0ZM80.07,16.63h-9.53v21.04c0,2.21-.71,4-2.12,5.37-1.41,1.37-3.22,2.05-5.44,2.05s-4.02-.68-5.44-2.05c-1.41-1.36-2.12-3.15-2.12-5.37v-21.04h-9.53v21.04c0,4.75,1.6,8.63,4.8,11.61,3.2,2.99,7.3,4.48,12.29,4.48s9.08-1.49,12.29-4.48c3.2-2.99,4.8-6.86,4.8-11.61v-21.04h0Z"/>
  </g>
  <g>
    <path class="cls-3" d="M168.16,53.77l1.98-8.3c.06-.24-.07-.49-.3-.58-.06-.03-.12-.04-.19-.04-.17,0-.34.09-.43.24-2.71,4.55-6.13,6.76-10.49,6.76-1.09,0-2.25-.15-3.46-.43-2.75-.66-4.92-2.13-6.45-4.38-1.52-2.24-1.95-4.82-1.26-7.69,1.29-5.41,5.17-8.04,11.85-8.04,1.23,0,2.57.09,3.99.28l5.9.83c.42.07.83.11,1.2.11,1.78,0,2.93-.87,3.33-2.52.34-1.44.01-2.76-.98-3.92-.96-1.11-2.35-1.89-4.14-2.32-.76-.18-1.5-.27-2.2-.27-1.07,0-2.06.22-2.96.64-1.36.65-2.43,1.72-3.19,3.2l-7.83-3.83c1.24-2.68,3.4-4.67,6.42-5.93,1.82-.76,3.84-1.14,6-1.14,1.65,0,3.43.22,5.28.67,4.35,1.04,7.64,3.03,9.8,5.92,2.13,2.86,2.69,6.5,1.66,10.82l-5.23,21.9-8.3-1.98ZM160.9,37.4c-1.07,0-2.02.21-2.82.62-1.07.54-1.75,1.4-2.02,2.56-.29,1.2-.05,2.31.71,3.29.73.95,1.86,1.61,3.34,1.96.81.19,1.62.29,2.41.29,1.67,0,3.29-.44,4.83-1.32,1.51-.86,2.72-2.08,3.49-3.52.59-1.09.9-2.29,1.21-3.45.08-.31.16-.61.25-.92,0,0,.14-.48.17-.61l-.97-.25c-.03.07-.23.26-.33.34-.07.06-.13.12-.18.17-.63.66-1.1,1.05-1.82,1.28-.56.18-1.21.27-1.97.27h-.24c-1.09-.03-2.21-.21-3.28-.4-.51-.09-1.02-.17-1.54-.24-.16-.02-.24-.03-.32-.04-.32-.03-.62-.05-.92-.05Z"/>
    <path class="cls-3" d="M164.95,16.94c1.61,0,3.35.22,5.16.65,4.23,1.01,7.43,2.94,9.51,5.73,2.07,2.78,2.58,6.18,1.58,10.4l-5.11,21.42-7.33-1.75,1.87-7.82c.11-.48-.14-.97-.6-1.16-.12-.05-.25-.07-.38-.07-.34,0-.67.18-.86.49-2.61,4.38-5.9,6.52-10.06,6.52-1.05,0-2.18-.14-3.34-.42-2.66-.63-4.67-2-6.15-4.18-1.46-2.15-1.85-4.53-1.19-7.29,1.23-5.15,4.95-7.65,11.36-7.65,1.21,0,2.53.09,3.91.27l5.87.82c.46.08.9.12,1.3.12,2.01,0,3.37-1.03,3.81-2.9.38-1.58,0-3.09-1.09-4.36-1.03-1.19-2.51-2.03-4.4-2.48-.8-.19-1.58-.29-2.32-.29-1.14,0-2.21.23-3.18.69-1.32.63-2.39,1.63-3.19,2.99l-6.95-3.4c1.21-2.37,3.17-4.08,5.95-5.24,1.76-.73,3.72-1.1,5.81-1.1M171.05,35.83c-.05.06-.16.16-.22.21-.08.07-.15.14-.2.19-.57.6-.99.96-1.61,1.15-.51.16-1.11.24-1.82.24h-.23c-1.06-.03-2.1-.2-3.21-.39-.52-.09-1.04-.17-1.56-.25h-.06c-.09-.02-.18-.03-.28-.04-.33-.03-.66-.05-.97-.05-1.15,0-2.18.23-3.05.67-1.21.61-1.97,1.59-2.28,2.89-.32,1.36-.05,2.61.8,3.71.81,1.04,2.02,1.76,3.62,2.14.85.2,1.7.31,2.53.31,1.76,0,3.47-.46,5.08-1.38,1.59-.91,2.87-2.19,3.69-3.72.61-1.14.94-2.37,1.25-3.56.08-.3.16-.61.24-.91l.06-.19c.04-.14.08-.28.12-.42.14-.53-.18-1.08-.72-1.22-.08-.02-.17-.03-.25-.03-.41,0-.78.25-.93.64M164.95,15.94c-2.24,0-4.3.39-6.2,1.18-3.33,1.38-5.62,3.59-6.88,6.63l8.71,4.26c.72-1.62,1.78-2.76,3.17-3.42.84-.4,1.75-.6,2.75-.6.66,0,1.35.09,2.08.26,1.69.4,2.99,1.12,3.88,2.16.89,1.04,1.18,2.19.88,3.48-.34,1.42-1.29,2.13-2.84,2.13-.35,0-.72-.04-1.13-.11l-5.9-.83c-1.44-.19-2.79-.28-4.05-.28-6.88,0-11,2.81-12.34,8.42-.72,3.02-.28,5.72,1.34,8.09,1.61,2.37,3.86,3.9,6.74,4.59,1.25.3,2.44.45,3.57.45,4.5,0,8.14-2.33,10.92-7l-2.1,8.79,9.27,2.21,5.34-22.39c1.07-4.49.49-8.23-1.75-11.23-2.24-3-5.6-5.04-10.08-6.11-1.9-.45-3.69-.68-5.39-.68h0ZM167.2,38.63c.72,0,1.44-.07,2.13-.29.86-.27,1.41-.77,2.03-1.41.18-.19.56-.48.63-.74-.05.2-.11.4-.17.6-.4,1.43-.71,2.94-1.41,4.26-.76,1.41-1.92,2.53-3.3,3.32-1.46.83-2.99,1.25-4.58,1.25-.75,0-1.51-.09-2.29-.28-1.37-.33-2.39-.92-3.06-1.78-.67-.86-.87-1.82-.62-2.87.24-1.01.83-1.75,1.77-2.23.73-.37,1.6-.56,2.59-.56.28,0,.57.01.87.04.1,0,.2.03.3.04,1.63.22,3.23.6,4.88.64.08,0,.17,0,.25,0h0Z"/>
  </g>
  <g>
    <path class="cls-3" d="M168.16,53.77l1.98-8.3c.06-.24-.07-.49-.3-.58-.06-.03-.12-.04-.19-.04-.17,0-.34.09-.43.24-2.71,4.55-6.13,6.76-10.49,6.76-1.09,0-2.25-.15-3.46-.43-2.75-.66-4.92-2.13-6.45-4.38-1.52-2.24-1.95-4.82-1.26-7.69,1.29-5.41,5.17-8.04,11.85-8.04,1.23,0,2.57.09,3.99.28l5.9.83c.42.07.83.11,1.2.11,1.78,0,2.93-.87,3.33-2.52.34-1.44.01-2.76-.98-3.92-.96-1.11-2.35-1.89-4.14-2.32-.76-.18-1.5-.27-2.2-.27-1.07,0-2.06.22-2.96.64-1.36.65-2.43,1.72-3.19,3.2l-7.83-3.83c1.24-2.68,3.4-4.67,6.42-5.93,1.82-.76,3.84-1.14,6-1.14,1.65,0,3.43.22,5.28.67,4.35,1.04,7.64,3.03,9.8,5.92,2.13,2.86,2.69,6.5,1.66,10.82l-5.23,21.9-8.3-1.98ZM160.9,37.4c-1.07,0-2.02.21-2.82.62-1.07.54-1.75,1.4-2.02,2.56-.29,1.2-.05,2.31.71,3.29.73.95,1.86,1.61,3.34,1.96.81.19,1.62.29,2.41.29,1.67,0,3.29-.44,4.83-1.32,1.51-.86,2.72-2.08,3.49-3.52.59-1.09.9-2.29,1.21-3.45.08-.31.16-.61.25-.92,0,0,.14-.48.17-.61l-.97-.25c-.03.07-.23.26-.33.34-.07.06-.13.12-.18.17-.63.66-1.1,1.05-1.82,1.28-.56.18-1.21.27-1.97.27h-.24c-1.09-.03-2.21-.21-3.28-.4-.51-.09-1.02-.17-1.54-.24-.16-.02-.24-.03-.32-.04-.32-.03-.62-.05-.92-.05Z"/>
    <path class="cls-3" d="M164.95,16.94c1.61,0,3.35.22,5.16.65,4.23,1.01,7.43,2.94,9.51,5.73,2.07,2.78,2.58,6.18,1.58,10.4l-5.11,21.42-7.33-1.75,1.87-7.82c.11-.48-.14-.97-.6-1.16-.12-.05-.25-.07-.38-.07-.34,0-.67.18-.86.49-2.61,4.38-5.9,6.52-10.06,6.52-1.05,0-2.18-.14-3.34-.42-2.66-.63-4.67-2-6.15-4.18-1.46-2.15-1.85-4.53-1.19-7.29,1.23-5.15,4.95-7.65,11.36-7.65,1.21,0,2.53.09,3.91.27l5.87.82c.46.08.9.12,1.3.12,2.01,0,3.37-1.03,3.81-2.9.38-1.58,0-3.09-1.09-4.36-1.03-1.19-2.51-2.03-4.4-2.48-.8-.19-1.58-.29-2.32-.29-1.14,0-2.21.23-3.18.69-1.32.63-2.39,1.63-3.19,2.99l-6.95-3.4c1.21-2.37,3.17-4.08,5.95-5.24,1.76-.73,3.72-1.1,5.81-1.1M171.05,35.83c-.05.06-.16.16-.22.21-.08.07-.15.14-.2.19-.57.6-.99.96-1.61,1.15-.51.16-1.11.24-1.82.24h-.23c-1.06-.03-2.1-.2-3.21-.39-.52-.09-1.04-.17-1.56-.25h-.06c-.09-.02-.18-.03-.28-.04-.33-.03-.66-.05-.97-.05-1.15,0-2.18.23-3.05.67-1.21.61-1.97,1.59-2.28,2.89-.32,1.36-.05,2.61.8,3.71.81,1.04,2.02,1.76,3.62,2.14.85.2,1.7.31,2.53.31,1.76,0,3.47-.46,5.08-1.38,1.59-.91,2.87-2.19,3.69-3.72.61-1.14.94-2.37,1.25-3.56.08-.3.16-.61.24-.91l.06-.19c.04-.14.08-.28.12-.42.14-.53-.18-1.08-.72-1.22-.08-.02-.17-.03-.25-.03-.41,0-.78.25-.93.64M164.95,15.94c-2.24,0-4.3.39-6.2,1.18-3.33,1.38-5.62,3.59-6.88,6.63l8.71,4.26c.72-1.62,1.78-2.76,3.17-3.42.84-.4,1.75-.6,2.75-.6.66,0,1.35.09,2.08.26,1.69.4,2.99,1.12,3.88,2.16.89,1.04,1.18,2.19.88,3.48-.34,1.42-1.29,2.13-2.84,2.13-.35,0-.72-.04-1.13-.11l-5.9-.83c-1.44-.19-2.79-.28-4.05-.28-6.88,0-11,2.81-12.34,8.42-.72,3.02-.28,5.72,1.34,8.09,1.61,2.37,3.86,3.9,6.74,4.59,1.25.3,2.44.45,3.57.45,4.5,0,8.14-2.33,10.92-7l-2.1,8.79,9.27,2.21,5.34-22.39c1.07-4.49.49-8.23-1.75-11.23-2.24-3-5.6-5.04-10.08-6.11-1.9-.45-3.69-.68-5.39-.68h0ZM167.2,38.63c.72,0,1.44-.07,2.13-.29.86-.27,1.41-.77,2.03-1.41.18-.19.56-.48.63-.74-.05.2-.11.4-.17.6-.4,1.43-.71,2.94-1.41,4.26-.76,1.41-1.92,2.53-3.3,3.32-1.46.83-2.99,1.25-4.58,1.25-.75,0-1.51-.09-2.29-.28-1.37-.33-2.39-.92-3.06-1.78-.67-.86-.87-1.82-.62-2.87.24-1.01.83-1.75,1.77-2.23.73-.37,1.6-.56,2.59-.56.28,0,.57.01.87.04.1,0,.2.03.3.04,1.63.22,3.23.6,4.88.64.08,0,.17,0,.25,0h0Z"/>
  </g>
  <path class="cls-2" d="M198.12,44.56c-1.25-1.3-2.86-1.95-4.83-1.95-1.71,0-3.18.66-4.4,1.97-1.22,1.32-1.83,2.94-1.83,4.88s.6,3.61,1.81,4.92c1.2,1.32,2.68,1.97,4.42,1.97,1.97,0,3.57-.65,4.83-1.95,1.25-1.3,1.88-2.95,1.88-4.95s-.63-3.6-1.88-4.9Z"/>
  <path class="cls-1" d="M198.12,44.56c-1.25-1.3-2.86-1.95-4.83-1.95-1.71,0-3.18.66-4.4,1.97-1.22,1.32-1.83,2.94-1.83,4.88s.6,3.61,1.81,4.92c1.2,1.32,2.68,1.97,4.42,1.97,1.97,0,3.57-.65,4.83-1.95,1.25-1.3,1.88-2.95,1.88-4.95s-.63-3.6-1.88-4.9Z"/>
</svg>