<?xml version="1.0" encoding="UTF-8"?>
<svg id="Layer_1" data-name="Layer 1" xmlns="http://www.w3.org/2000/svg" version="1.1" viewBox="0 0 200 68">
  <defs>
    <style>
      .cls-1 {
        fill: #ea1313;
      }

      .cls-1, .cls-2 {
        stroke-width: 0px;
      }

      .cls-2 {
        fill: #353531;
      }
    </style>
  </defs>
  <path class="cls-2" d="M29.09,26.87c-1.08-3.34-2.8-6-5.15-7.98-2.35-1.98-5.11-2.97-8.26-2.97-4.47,0-8.2,1.81-11.19,5.44C1.49,24.99,0,29.48,0,34.85s1.49,9.86,4.48,13.49c2.99,3.63,6.72,5.44,11.19,5.44,3.15,0,5.91-.99,8.26-2.97,2.35-1.98,4.07-4.64,5.15-7.98v10.24h9.53V.81h-9.53v26.05ZM26.3,42.19c-1.86,1.93-4.25,2.89-7.17,2.89-2.59,0-4.78-.98-6.57-2.93-1.79-1.95-2.68-4.39-2.68-7.31s.91-5.28,2.72-7.24c1.81-1.95,3.99-2.93,6.53-2.93,2.92,0,5.31.97,7.17,2.9,1.86,1.93,2.79,4.35,2.79,7.27s-.93,5.41-2.79,7.34ZM110.36,15.92c-3.2,0-5.97,1-8.3,3-2.33,2-4.04,4.72-5.12,8.15v-10.45h-9.53v50.55h9.53v-24.57c1.08,3.44,2.79,6.15,5.12,8.15,2.33,2,5.09,3,8.3,3,4.52,0,8.26-1.81,11.23-5.44,2.97-3.62,4.45-8.12,4.45-13.49s-1.48-9.86-4.45-13.49c-2.97-3.62-6.71-5.44-11.23-5.44ZM113.47,42.16c-1.79,1.95-3.98,2.93-6.57,2.93-2.87,0-5.25-.98-7.13-2.93-1.88-1.95-2.82-4.39-2.82-7.31s.94-5.34,2.82-7.27c1.88-1.93,4.26-2.9,7.13-2.9,2.59,0,4.78.98,6.57,2.93,1.79,1.95,2.68,4.37,2.68,7.24s-.89,5.35-2.68,7.31ZM70.54,37.67c0,2.21-.71,4-2.12,5.37-1.41,1.37-3.22,2.05-5.44,2.05s-4.02-.68-5.44-2.05c-1.41-1.36-2.12-3.15-2.12-5.37v-21.04h-9.53v21.04c0,4.75,1.6,8.63,4.8,11.61,3.2,2.99,7.3,4.48,12.29,4.48s9.08-1.49,12.29-4.48c3.2-2.99,4.8-6.86,4.8-11.61v-21.04h-9.53v21.04ZM132.25.81v52.25h9.53V.81h-9.53Z"/>
  <path class="cls-2" d="M180.43,22.73c-2.24-3-5.6-5.04-10.08-6.11-4.4-1.05-8.26-.88-11.59.5-3.33,1.38-5.62,3.59-6.88,6.63l8.71,4.26c.72-1.62,1.78-2.76,3.17-3.42,1.39-.66,3-.77,4.83-.33,1.69.4,2.99,1.12,3.88,2.16.89,1.04,1.18,2.19.88,3.48-.42,1.74-1.74,2.42-3.97,2.03l-5.9-.83c-9.34-1.21-14.8,1.5-16.39,8.14-.72,3.02-.28,5.72,1.34,8.09,1.61,2.37,3.86,3.9,6.74,4.59,6.18,1.48,11.01-.71,14.49-6.56l-2.1,8.79,9.27,2.21,5.34-22.39c1.07-4.49.49-8.23-1.75-11.23ZM171.81,36.79c-.4,1.43-.71,2.94-1.41,4.26-.76,1.41-1.92,2.53-3.3,3.32-2.16,1.23-4.45,1.55-6.87.97-1.37-.33-2.39-.92-3.06-1.78-.67-.86-.87-1.82-.62-2.87.24-1.01.83-1.75,1.77-2.23.94-.48,2.09-.65,3.46-.52.1,0,.2.03.3.04,1.63.22,3.23.6,4.88.64.8.02,1.61-.04,2.38-.29.86-.27,1.41-.77,2.03-1.41.18-.19.56-.48.63-.74-.05.2-.11.4-.17.6Z"/>
  <path class="cls-1" d="M198.12,44.56c-1.25-1.3-2.86-1.95-4.83-1.95-1.71,0-3.18.66-4.4,1.97-1.22,1.32-1.83,2.94-1.83,4.88s.6,3.61,1.81,4.92c1.2,1.32,2.68,1.97,4.42,1.97,1.97,0,3.57-.65,4.83-1.95,1.25-1.3,1.88-2.95,1.88-4.95s-.63-3.6-1.88-4.9Z"/>
</svg>